<svg width="20" height="14" viewBox="0 0 20 14" fill="none" xmlns="http://www.w3.org/2000/svg">
<path d="M0.2724 7.66891L6.22406 13.723C6.58719 14.0923 7.1761 14.0923 7.53923 13.723C7.90243 13.3535 7.90243 12.7546 7.53923 12.3852L3.1751 7.94596L19.0701 7.94596C19.5836 7.94596 20 7.5224 20 7.00001C20 6.4777 19.5836 6.05406 19.0701 6.05406L3.1751 6.05406L7.53908 1.61485C7.90228 1.2454 7.90228 0.646498 7.53908 0.277049C7.35756 0.0924759 7.11949 0 6.8815 0C6.6435 0 6.40551 0.0924759 6.22391 0.277049L0.2724 6.33111C-0.0907993 6.70056 -0.0907993 7.29946 0.2724 7.66891Z" fill="#fff"/>
</svg>
