<svg width="5" height="9" viewBox="0 0 5 9" fill="none" xmlns="http://www.w3.org/2000/svg">
<path d="M0.910562 8.9101L4.91406 4.70734C4.97132 4.64729 5 4.57821 5 4.50006C5 4.42192 4.97132 4.35271 4.91406 4.29263L0.910563 0.0902121C0.853209 0.0300074 0.787399 -1.84139e-07 0.712923 -1.87394e-07C0.638477 -1.90648e-07 0.572577 0.0301021 0.515343 0.0902121L0.0859103 0.541021C0.0286464 0.601131 2.95346e-05 0.670306 2.95312e-05 0.748452C2.95278e-05 0.826598 0.0286464 0.895773 0.0859103 0.955883L3.46221 4.50006L0.0856992 8.04437C0.0284354 8.10445 -3.57282e-07 8.17365 -3.60692e-07 8.25167C-3.64114e-07 8.32995 0.0286161 8.39912 0.0856992 8.4592L0.515313 8.91007C0.572547 8.97015 0.638476 9 0.712892 9C0.787398 9.00003 0.853298 8.97018 0.910562 8.9101Z" fill="#DE892C"/>
</svg>
